# xmcd
#
# Track frame offsets: 
#        150
#        30353
#        51853
#        72415
#        87715
#        115865
#        138115
#        156495
#        193850
#        217598
#        241708
#
# Disc length: 3539 seconds
#
# Revision: 3
# Processed by: cddbd v1.4PL0 Copyright (c) Steve Scherf et al.
# Submitted via: ExactAudioCopy v0.95a4
#
DISCID=930dd10b
DTITLE=Vic Chesnutt - Silver lake
DYEAR=2003
DGENRE=Urban Folk
TTITLE0=I'm Through
TTITLE1=Stay Inside
TTITLE2=Band Camp
TTITLE3=Girl's Say
TTITLE4=2nd Floor
TTITLE5=Styrofoam
TTITLE6=Zippy Morocco
TTITLE7=Sultan, So Mighty
TTITLE8=Wren's Nest
TTITLE9=Fa-La-La
TTITLE10=In My Way, Yes
EXTD=
EXTT0=
EXTT1=
EXTT2=
EXTT3=
EXTT4=
EXTT5=
EXTT6=
EXTT7=
EXTT8=
EXTT9=
EXTT10=
PLAYORDER=
